<mxfile host="Electron" modified="2024-03-04T12:37:40.226Z" agent="Mozilla/5.0 (Windows NT 10.0; Win64; x64) AppleWebKit/537.36 (KHTML, like Gecko) draw.io/23.1.5 Chrome/120.0.6099.109 Electron/28.1.0 Safari/537.36" etag="-yL9gHbFb8ZprZ-cRUMe" version="23.1.5" type="device">
  <diagram id="C5RBs43oDa-KdzZeNtuy" name="Page-1">
    <mxGraphModel dx="1036" dy="614" grid="1" gridSize="10" guides="1" tooltips="1" connect="1" arrows="1" fold="1" page="1" pageScale="1" pageWidth="827" pageHeight="1169" math="0" shadow="0">
      <root>
        <mxCell id="WIyWlLk6GJQsqaUBKTNV-0" />
        <mxCell id="WIyWlLk6GJQsqaUBKTNV-1" parent="WIyWlLk6GJQsqaUBKTNV-0" />
        <mxCell id="Bf98omlP5wEKzuWhZzkC-3" value="" style="edgeStyle=orthogonalEdgeStyle;rounded=0;orthogonalLoop=1;jettySize=auto;html=1;movable=1;resizable=1;rotatable=1;deletable=1;editable=1;locked=0;connectable=1;" edge="1" parent="WIyWlLk6GJQsqaUBKTNV-1" source="WIyWlLk6GJQsqaUBKTNV-3" target="Bf98omlP5wEKzuWhZzkC-1">
          <mxGeometry relative="1" as="geometry" />
        </mxCell>
        <mxCell id="WIyWlLk6GJQsqaUBKTNV-3" value="输入n，保证n大于0&lt;br&gt;（表示输入数字个数）" style="rounded=1;whiteSpace=wrap;html=1;fontSize=12;glass=0;strokeWidth=1;shadow=0;movable=1;resizable=1;rotatable=1;deletable=1;editable=1;locked=0;connectable=1;" parent="WIyWlLk6GJQsqaUBKTNV-1" vertex="1">
          <mxGeometry x="268" y="170" width="130" height="50" as="geometry" />
        </mxCell>
        <mxCell id="Bf98omlP5wEKzuWhZzkC-7" value="" style="edgeStyle=orthogonalEdgeStyle;rounded=0;orthogonalLoop=1;jettySize=auto;html=1;movable=1;resizable=1;rotatable=1;deletable=1;editable=1;locked=0;connectable=1;" edge="1" parent="WIyWlLk6GJQsqaUBKTNV-1" source="Bf98omlP5wEKzuWhZzkC-1" target="Bf98omlP5wEKzuWhZzkC-6">
          <mxGeometry relative="1" as="geometry" />
        </mxCell>
        <mxCell id="Bf98omlP5wEKzuWhZzkC-1" value="输入第i个数k&lt;br&gt;i∈[1,n]" style="rounded=1;whiteSpace=wrap;html=1;movable=1;resizable=1;rotatable=1;deletable=1;editable=1;locked=0;connectable=1;" vertex="1" parent="WIyWlLk6GJQsqaUBKTNV-1">
          <mxGeometry x="273" y="260" width="120" height="40" as="geometry" />
        </mxCell>
        <mxCell id="Bf98omlP5wEKzuWhZzkC-12" style="edgeStyle=orthogonalEdgeStyle;rounded=0;orthogonalLoop=1;jettySize=auto;html=1;movable=1;resizable=1;rotatable=1;deletable=1;editable=1;locked=0;connectable=1;" edge="1" parent="WIyWlLk6GJQsqaUBKTNV-1" source="Bf98omlP5wEKzuWhZzkC-6">
          <mxGeometry relative="1" as="geometry">
            <mxPoint x="233" y="410" as="targetPoint" />
          </mxGeometry>
        </mxCell>
        <mxCell id="Bf98omlP5wEKzuWhZzkC-13" style="edgeStyle=orthogonalEdgeStyle;rounded=0;orthogonalLoop=1;jettySize=auto;html=1;movable=1;resizable=1;rotatable=1;deletable=1;editable=1;locked=0;connectable=1;" edge="1" parent="WIyWlLk6GJQsqaUBKTNV-1" source="Bf98omlP5wEKzuWhZzkC-6">
          <mxGeometry relative="1" as="geometry">
            <mxPoint x="443" y="410" as="targetPoint" />
          </mxGeometry>
        </mxCell>
        <mxCell id="Bf98omlP5wEKzuWhZzkC-6" value="与历史&lt;br&gt;最大值ans&lt;br&gt;进行比较" style="rhombus;whiteSpace=wrap;html=1;movable=1;resizable=1;rotatable=1;deletable=1;editable=1;locked=0;connectable=1;" vertex="1" parent="WIyWlLk6GJQsqaUBKTNV-1">
          <mxGeometry x="275.5" y="330" width="115" height="70" as="geometry" />
        </mxCell>
        <mxCell id="Bf98omlP5wEKzuWhZzkC-17" style="edgeStyle=orthogonalEdgeStyle;rounded=0;orthogonalLoop=1;jettySize=auto;html=1;movable=1;resizable=1;rotatable=1;deletable=1;editable=1;locked=0;connectable=1;" edge="1" parent="WIyWlLk6GJQsqaUBKTNV-1" source="Bf98omlP5wEKzuWhZzkC-8">
          <mxGeometry relative="1" as="geometry">
            <mxPoint x="333" y="480" as="targetPoint" />
          </mxGeometry>
        </mxCell>
        <mxCell id="Bf98omlP5wEKzuWhZzkC-8" value="如果比ans大&lt;br&gt;则令ans=k" style="rounded=1;whiteSpace=wrap;html=1;movable=1;resizable=1;rotatable=1;deletable=1;editable=1;locked=0;connectable=1;" vertex="1" parent="WIyWlLk6GJQsqaUBKTNV-1">
          <mxGeometry x="183" y="410" width="100" height="55" as="geometry" />
        </mxCell>
        <mxCell id="Bf98omlP5wEKzuWhZzkC-18" style="edgeStyle=orthogonalEdgeStyle;rounded=0;orthogonalLoop=1;jettySize=auto;html=1;movable=1;resizable=1;rotatable=1;deletable=1;editable=1;locked=0;connectable=1;" edge="1" parent="WIyWlLk6GJQsqaUBKTNV-1" source="Bf98omlP5wEKzuWhZzkC-10">
          <mxGeometry relative="1" as="geometry">
            <mxPoint x="333" y="480" as="targetPoint" />
          </mxGeometry>
        </mxCell>
        <mxCell id="Bf98omlP5wEKzuWhZzkC-10" value="如果比ans小&lt;br&gt;则令ans不变" style="rounded=1;whiteSpace=wrap;html=1;movable=1;resizable=1;rotatable=1;deletable=1;editable=1;locked=0;connectable=1;" vertex="1" parent="WIyWlLk6GJQsqaUBKTNV-1">
          <mxGeometry x="390.5" y="410" width="100" height="55" as="geometry" />
        </mxCell>
        <mxCell id="Bf98omlP5wEKzuWhZzkC-20" value="" style="edgeStyle=orthogonalEdgeStyle;rounded=0;orthogonalLoop=1;jettySize=auto;html=1;movable=1;resizable=1;rotatable=1;deletable=1;editable=1;locked=0;connectable=1;" edge="1" parent="WIyWlLk6GJQsqaUBKTNV-1" source="Bf98omlP5wEKzuWhZzkC-14" target="Bf98omlP5wEKzuWhZzkC-19">
          <mxGeometry relative="1" as="geometry" />
        </mxCell>
        <mxCell id="Bf98omlP5wEKzuWhZzkC-21" style="edgeStyle=orthogonalEdgeStyle;rounded=0;orthogonalLoop=1;jettySize=auto;html=1;movable=1;resizable=1;rotatable=1;deletable=1;editable=1;locked=0;connectable=1;" edge="1" parent="WIyWlLk6GJQsqaUBKTNV-1" source="Bf98omlP5wEKzuWhZzkC-14">
          <mxGeometry relative="1" as="geometry">
            <mxPoint x="333" y="240" as="targetPoint" />
            <Array as="points">
              <mxPoint x="644" y="510" />
              <mxPoint x="644" y="240" />
            </Array>
          </mxGeometry>
        </mxCell>
        <mxCell id="Bf98omlP5wEKzuWhZzkC-14" value="如果i大于n" style="rhombus;whiteSpace=wrap;html=1;movable=1;resizable=1;rotatable=1;deletable=1;editable=1;locked=0;connectable=1;" vertex="1" parent="WIyWlLk6GJQsqaUBKTNV-1">
          <mxGeometry x="283" y="480" width="100" height="60" as="geometry" />
        </mxCell>
        <mxCell id="Bf98omlP5wEKzuWhZzkC-19" value="return 0;&lt;br&gt;程序结束" style="rounded=1;whiteSpace=wrap;html=1;movable=1;resizable=1;rotatable=1;deletable=1;editable=1;locked=0;connectable=1;" vertex="1" parent="WIyWlLk6GJQsqaUBKTNV-1">
          <mxGeometry x="273" y="590" width="120" height="50" as="geometry" />
        </mxCell>
        <mxCell id="Bf98omlP5wEKzuWhZzkC-22" value="否则" style="rounded=1;whiteSpace=wrap;html=1;movable=1;resizable=1;rotatable=1;deletable=1;editable=1;locked=0;connectable=1;" vertex="1" parent="WIyWlLk6GJQsqaUBKTNV-1">
          <mxGeometry x="413" y="495" width="64" height="30" as="geometry" />
        </mxCell>
      </root>
    </mxGraphModel>
  </diagram>
</mxfile>
